<svg width="60" height="61" viewBox="0 0 60 61" fill="none" xmlns="http://www.w3.org/2000/svg">
<rect y="0.333496" width="60" height="60" rx="15" fill="black"/>
<path d="M30.3545 22.8125C31.5239 22.8125 32.9899 22.0219 33.8628 20.9677C34.6534 20.0124 35.2299 18.6783 35.2299 17.3441C35.2299 17.1629 35.2135 16.9817 35.1805 16.8335C33.8793 16.8829 32.3145 17.7065 31.3757 18.81C30.6345 19.6501 29.9592 20.9677 29.9592 22.3184C29.9592 22.516 29.9921 22.7137 30.0086 22.7796C30.0909 22.796 30.2227 22.8125 30.3545 22.8125ZM26.2367 42.7426C27.8344 42.7426 28.5427 41.672 30.5357 41.672C32.5616 41.672 33.0063 42.7096 34.7852 42.7096C36.5312 42.7096 37.7006 41.0955 38.8042 39.5142C40.0395 37.7024 40.5501 35.9235 40.583 35.8412C40.4678 35.8082 37.1241 34.4411 37.1241 30.6034C37.1241 27.2762 39.7595 25.7773 39.9077 25.662C38.1618 23.1584 35.5099 23.0925 34.7852 23.0925C32.8251 23.0925 31.2274 24.2784 30.2227 24.2784C29.1356 24.2784 27.7026 23.1584 26.0061 23.1584C22.7778 23.1584 19.5 25.8267 19.5 30.8669C19.5 33.9964 20.7189 37.3071 22.2177 39.4484C23.5025 41.2602 24.6225 42.7426 26.2367 42.7426Z" fill="white"/>
</svg>
