<svg fill="none" height="80" viewBox="0 0 80 80" width="80" xmlns="http://www.w3.org/2000/svg" xmlns:xlink="http://www.w3.org/1999/xlink"><filter id="a" color-interpolation-filters="sRGB" filterUnits="userSpaceOnUse" height="80" width="80" x="0" y="0"><feFlood flood-opacity="0" result="BackgroundImageFix"/><feColorMatrix in="SourceAlpha" result="hardAlpha" type="matrix" values="0 0 0 0 0 0 0 0 0 0 0 0 0 0 0 0 0 0 127 0"/><feOffset dx="2" dy="2"/><feGaussianBlur stdDeviation="7.5"/><feComposite in2="hardAlpha" operator="out"/><feColorMatrix type="matrix" values="0 0 0 0 0 0 0 0 0 0 0 0 0 0 0 0 0 0 0.25 0"/><feBlend in2="BackgroundImageFix" mode="normal" result="effect1_dropShadow_1025_8040"/><feBlend in="SourceGraphic" in2="effect1_dropShadow_1025_8040" mode="normal" result="shape"/></filter><g filter="url(#a)"><rect fill="#fd85b3" height="50" rx="25" width="50" x="13" y="13"/><path d="m38 53.625c-.3438 0-.6875-.0156-1.0312-.0469l-.8438 1.5625c-.2656.4844-.6875.7188-1.2188.625-.5156-.1094-.875-.4687-.9374-1l-.25-1.75c-.6719-.1875-1.3282-.4218-1.9376-.7031l-1.3281 1.1719c-.4062.3594-.8906.4375-1.3593.1562-.4532-.2656-.6563-.7187-.5469-1.2656l.3593-1.7188c-.5468-.4062-1.0781-.8437-1.5781-1.3437l-1.6406.6719c-.5.1875-.9844.0937-1.3437-.3125-.3126-.4063-.375-.9219-.0782-1.3907l.9375-1.4843c-.375-.5625-.7187-1.1719-1.0312-1.7813l-1.7657.0313c-.5468.0156-.9531-.2188-1.1406-.7344-.1718-.5-.0468-.9844.3906-1.3281l1.3907-1.0782c-.1719-.6562-.2813-1.3437-.3594-2.0468l-1.6875-.5469c-.5156-.1563-.8125-.5625-.8125-1.0937 0-.5313.2969-.9376.8125-1.1094l1.6875-.5313c.0781-.7031.1875-1.3906.3594-2.0469l-1.3907-1.0937c-.4374-.3281-.5781-.8125-.3906-1.3125.1719-.5.5938-.7812 1.1406-.7656l1.7657.0781c.3125-.625.6562-1.2187 1.0312-1.7969l-.9375-1.5c-.2812-.4687-.2656-.9687.0938-1.375.3437-.3906.8281-.5312 1.3281-.3281l1.6406.6719c.5-.4844 1.0157-.9219 1.5938-1.3282l-.375-1.7343c-.0938-.5313.0781-1 .5469-1.25.4531-.2657.9687-.2188 1.3593.1406l1.3125 1.1875c.625-.2656 1.2656-.5156 1.9532-.7031l.25-1.75c.0781-.5313.4062-.9219.9374-1 .5157-.0781.9688.125 1.2344.6093l.8282 1.5782c.3437-.0313.6874-.0469 1.0312-.0469s.6875.0156 1.0312.0469l.8438-1.5782c.25-.4687.6875-.7031 1.2188-.6093.5156.1093.875.4687.9374 1l.25 1.75c.6719.1875 1.3282.4219 1.9376.7031l1.3281-1.1719c.4062-.3593.8906-.4375 1.3593-.1562.4532.2656.6563.7187.5469 1.2656l-.375 1.7031c.5625.4063 1.0938.8594 1.5938 1.3438l1.6406-.6563c.5-.2031.9844-.1093 1.3281.3125.3282.4063.3906.9219.0938 1.375l-.9375 1.4844c.375.5781.7187 1.1719 1.0312 1.7969l1.75-.0469c.5469 0 .9688.2344 1.1563.75.1718.5.0468.9844-.3906 1.3281l-1.3907 1.0781c.1719.6563.2813 1.3438.3594 2.0469l1.6875.5313c.5156.1718.8125.5781.8125 1.1094 0 .5312-.2969.9374-.8125 1.0937l-1.6875.5469c-.0781.7031-.1875 1.3906-.3594 2.0468l1.3907 1.0938c.4374.3281.5781.8125.3906 1.2969-.1875.5-.6094.7812-1.1406.7656l-1.7657-.0625c-.3125.625-.6562 1.2188-1.0312 1.7969l.9219 1.5c.2968.4687.2812.9687-.0782 1.3593-.3437.4063-.8281.5469-1.3281.3282l-1.6406-.6563c-.5.4688-1.0313.9219-1.5938 1.3281l.3594 1.7344c.1094.5313-.0625.9844-.5313 1.25-.4687.25-.9687.2188-1.375-.1562l-1.2968-1.1719c-.625.2656-1.2656.5156-1.9532.7031l-.2656 1.75c-.0781.5313-.3906.9063-.9218 1-.5313.0782-.9688-.1406-1.2344-.625l-.8282-1.5625c-.3437.0313-.6874.0469-1.0312.0469zm0-19.9688c2.0156 0 3.7188 1.2969 4.3281 3.1094h7.6407c-.7188-5.9687-5.7969-10.6094-11.9688-10.6094-1.7188 0-3.3594.3594-4.8438 1.0157l3.8438 6.5937c.3281-.0625.6562-.1094 1-.1094zm-12.0625 4.5626c0 3.875 1.8281 7.3124 4.6563 9.5156l3.9843-6.5156c-.7031-.7969-1.125-1.8594-1.125-3 0-1.1563.4219-2.2032 1.1094-3l-3.8594-6.6094c-2.8906 2.2031-4.7656 5.6875-4.7656 9.6094zm12.0625 1.7812c.9844 0 1.7812-.7969 1.7812-1.7812 0-.9844-.7968-1.7813-1.7812-1.7813s-1.7812.7969-1.7812 1.7813c0 .9843.7968 1.7812 1.7812 1.7812zm0 10.2812c6.1875 0 11.2812-4.6562 11.9688-10.6718h-7.625c-.5938 1.8437-2.3126 3.1718-4.3438 3.1718-.3438 0-.6719-.0468-1-.125l-3.9688 6.5469c1.5157.6875 3.1876 1.0781 4.9688 1.0781z" fill="#fff"/></g></svg>