<svg width="32" height="21" viewBox="0 0 32 21" fill="none" xmlns="http://www.w3.org/2000/svg">
<g clip-path="url(#clip0_1990_651)">
<path d="M24.9338 20.3332H7.06708C6.56708 20.3332 6.16708 19.9332 6.16708 19.4332V13.9665C5.86708 14.0332 5.60042 14.1332 5.33375 14.1998C4.60042 14.4332 3.83375 14.4665 3.06708 14.2665C1.70042 13.8998 0.600416 12.7998 0.267083 11.3998C0.000415832 10.2332 0.267083 8.99984 1.00042 8.0665C1.73375 7.13317 2.86708 6.5665 4.06708 6.5665C4.46708 6.5665 4.90042 6.63317 5.30042 6.7665C5.56708 6.8665 5.86708 6.93317 6.16708 6.99984V1.5665C6.16708 1.0665 6.56708 0.666504 7.06708 0.666504H13.6004C13.8671 0.666504 14.1337 0.799837 14.3004 0.999837C14.4671 1.19984 14.5337 1.4665 14.5004 1.73317C14.3671 2.4665 14.2004 3.13317 14.0004 3.7665C13.8671 4.1665 13.8671 4.5665 13.9671 4.99984C14.1671 5.69984 14.7671 6.29984 15.4671 6.4665C16.1337 6.63317 16.7671 6.4665 17.3004 6.0665C17.8004 5.6665 18.1004 5.0665 18.1004 4.43317C18.1004 4.19984 18.0671 3.99984 18.0004 3.79984C17.8004 3.1665 17.6671 2.49984 17.5004 1.73317C17.4671 1.4665 17.5337 1.19984 17.7004 0.999837C17.8671 0.799837 18.1337 0.666504 18.4004 0.666504H24.9338C25.4338 0.666504 25.8338 1.0665 25.8338 1.5665V6.99984C26.1338 6.93317 26.4004 6.83317 26.6671 6.7665C27.0671 6.63317 27.4671 6.5665 27.9004 6.5665C29.1004 6.5665 30.2338 7.09984 30.9671 8.0665C31.7004 8.99984 32.0004 10.2332 31.7004 11.4332C31.3671 12.7998 30.3004 13.9332 28.9004 14.2998C28.1338 14.4998 27.3671 14.4665 26.6338 14.2332C26.3671 14.1332 26.1004 14.0665 25.8004 13.9998V19.4665C25.8671 19.9332 25.4671 20.3332 24.9338 20.3332ZM8.00042 18.5332H24.0671V12.8665C24.0671 12.5998 24.2004 12.3332 24.4004 12.1665C24.6004 11.9998 24.8671 11.9332 25.1338 11.9665C25.9004 12.0998 26.6338 12.2665 27.3004 12.4998C27.7004 12.6332 28.1004 12.6332 28.5338 12.5332C29.2338 12.3332 29.8338 11.7332 30.0004 11.0332C30.1671 10.3665 30.0004 9.73317 29.6004 9.19984C29.0671 8.53317 28.1338 8.23317 27.3004 8.49984C26.6671 8.69984 25.9671 8.8665 25.1338 9.03317C24.8671 9.0665 24.6004 8.99984 24.4004 8.83317C24.2004 8.6665 24.0671 8.39984 24.0671 8.13317V2.4665H19.5337C19.6004 2.73317 19.6671 2.9665 19.7337 3.1665C19.8671 3.5665 19.9338 3.9665 19.9338 4.39984C19.9338 5.59984 19.4004 6.73317 18.4338 7.4665C17.5004 8.19984 16.2671 8.49984 15.0671 8.19984C13.7004 7.8665 12.5671 6.79984 12.2004 5.39984C12.0004 4.63317 12.0337 3.8665 12.2671 3.13317C12.3337 2.89984 12.4004 2.6665 12.4671 2.43317H8.00042V8.09984C8.00042 8.3665 7.86708 8.63317 7.66708 8.79984C7.46708 8.9665 7.20042 9.03317 6.93375 8.99984C6.10042 8.8665 5.40042 8.6665 4.76708 8.4665C3.96708 8.19984 3.00042 8.4665 2.46708 9.1665C2.06708 9.6665 1.93375 10.3332 2.06708 10.9998C2.23375 11.6998 2.83375 12.3332 3.53375 12.4998C3.96708 12.5998 4.36708 12.5998 4.76708 12.4665C5.43375 12.2332 6.16708 12.0665 6.93375 11.9332C7.20042 11.8998 7.46708 11.9665 7.66708 12.1332C7.86708 12.2998 8.00042 12.5665 8.00042 12.8332V18.5332Z" fill="white"/>
</g>
<defs>
<clipPath id="clip0_1990_651">
<rect width="32" height="20" fill="white" transform="translate(0 0.5)"/>
</clipPath>
</defs>
</svg>
