<svg width="402" height="874" viewBox="0 0 402 874" fill="none" xmlns="http://www.w3.org/2000/svg">
<g clip-path="url(#clip0_1025_8046)">
<rect width="402" height="874" fill="#674884"/>
<path d="M-8.89917 771.399C-8.06936 774.446 -8.38139 779.563 -4.43809 780.346C0.359024 781.129 6.04681 783.004 9.28546 786.728C12.8619 791.765 11.2134 796.341 11.8443 802.119C12.1975 805.349 11.3694 808.501 11.954 811.823C12.6124 815.562 15.5236 818.086 18.3816 820.37C21.6768 822.913 22.1869 824.92 22.6558 829.144C23.4188 836.016 20.6936 849.447 20.1107 856.304C26.6591 855.048 26.6668 855.113 52.8632 856.303C54.1568 852.292 52.1525 845.355 51.435 841.221C51.0613 839.069 50.2221 836.771 50.2212 834.582C50.0069 830.44 53.0629 825.593 54.1739 821.669C55.0483 818.554 55.3552 815.544 55.4015 812.35C55.2009 809.887 56.9694 808.522 59.0482 807.216C62.5937 804.652 67.5503 803.331 71.563 801.543C76.6756 799.265 76.5685 793.31 80.3 789.777C83.4127 786.831 87.3688 784.717 87.9629 780.074C86.8116 785.193 81.7676 786.411 78.5058 789.803C75.1214 793.166 74.4939 798.378 69.2888 799.601C73.2621 795.582 75.2955 789.817 77.8912 784.895C79.6288 781.619 81.6039 778.383 82.9232 774.917C84.3719 771.147 83.8353 767.352 85.0337 763.61C86.0958 760.289 86.7276 756.611 85.2171 753.318C84.2022 750.79 84.425 749.066 85.2386 746.384C86.1301 743.449 85.4692 740.504 85.3303 737.519C85.2351 735.447 85.5763 733.423 84.7371 731.446C83.8438 729.342 82.444 727.51 81.381 725.496C82.0565 727.304 83.014 728.999 83.6227 730.832C84.5785 733.48 83.723 735.987 83.6218 738.688C83.5061 741.742 83.3012 743.917 82.0882 746.731C81.0604 744.571 80.066 742.415 78.8847 740.336C77.1668 737.751 76.2684 735.394 76.2401 732.297C76.2093 728.695 74.2093 725.355 73.9693 721.753C73.881 724.698 74.8128 727.525 75.1506 730.424C75.2637 731.4 75.2423 737.497 75.346 737.469C77.1034 739.484 78.0472 742.287 78.9679 744.759C79.2456 745.505 80.5563 751.84 80.6052 751.84C81.1135 751.84 82.5057 754.17 82.6609 754.694C83.1966 756.89 82.8092 759.054 82.0291 761.142C80.1509 757.063 77.214 753.39 75.9324 749.068C74.5239 744.32 72.3603 741.17 68.4684 737.997C66.489 736.383 64.3931 734.881 62.6203 733.04C60.6109 731.306 59.4485 728.742 57.4477 726.95C55.8953 725.561 47.6615 722.283 45.8244 726.118C47.7892 724.005 56.8734 728.494 57.9381 730.086C60.4815 733.884 62.8449 737.191 65.9944 740.578C68.8996 743.701 70.0894 746.335 70.7521 750.421C71.5425 756.526 76.7142 762.386 75.9392 768.651C74.6577 774.414 68.861 779.712 65.5632 784.629C65.5521 781.838 65.7244 778.964 65.2718 776.203C64.4154 770.964 60.9358 766.503 58.527 761.962C56.6179 758.36 54.3334 755.553 52.0977 752.201C50.4029 749.662 46.8394 743.653 49.0425 740.647C46.5316 743.537 49.7274 750.015 51.2465 752.733C53.3964 756.577 55.4529 760.037 57.3466 764.054C59.6243 768.885 62.7875 773.917 62.3349 780.003C62.1643 782.287 62.0014 784.571 61.8462 786.857C58.3058 783.467 54.3239 779.5 49.706 777.575C45.9701 776.018 44.5069 775.33 44.6689 771.269C44.8472 766.825 46.4348 762.562 44.2857 758.37C43.0821 756.027 41.9797 754.044 41.3942 751.464C41.3136 751.051 40.7316 748.094 40.5352 746.985C40.6638 748.006 40.939 750.576 40.969 750.777C41.4148 753.706 42.3835 755.994 43.5639 758.699C45.3735 762.832 43.5313 767.194 43.0281 771.462C42.464 776.239 44.6174 777.585 48.7553 779.596C53.5379 781.921 57.4357 786.682 60.9007 790.544C56.2244 794.225 50.0909 795.625 45.4044 799.437C42.098 802.127 39.7877 805.044 39.4826 809.48C39.1714 814.019 37.5083 817.424 35.3515 821.512C33.6422 817.116 31.1776 813.762 27.0269 811.268C25.9596 810.612 24.2443 809.99 23.3956 809.072C22.3421 808.021 23.0021 805.464 23.0476 804.166C23.1273 801.45 22.4072 798.697 22.4072 796.032C22.5795 791.669 22.6918 787.338 23.8422 783.068C24.4466 780.768 25.2558 778.503 25.9673 776.232C26.4714 774.622 26.9754 773.013 27.4795 771.403C28.1902 769.135 27.4752 766.867 28.0684 764.703C28.8914 761.701 29.3663 758.518 28.4413 755.482C27.5652 753.179 26.0728 751.243 26.0368 748.688C26.005 746.393 26.2339 744.108 26.1465 741.81C26.0796 740.057 25.9476 738.299 25.9673 736.544C26.3248 735.424 26.9866 734.564 26.9643 733.345C26.7774 734.981 25.5301 736.05 25.339 737.721C25.1221 739.912 25.0929 742.226 24.5923 744.377C22.1046 741.985 21.9229 740.804 22.805 737.478C24.2048 733.411 23.9768 731.43 19.4497 730.225C23.7634 731.826 23.2173 733.423 21.7471 737.251C20.4407 740.141 20.1672 742.102 22.2649 744.401C24.5915 746.95 23.3099 748.131 23.9751 751.211C24.6463 754.802 26.3514 756.901 25.4238 760.708C23.9211 758.481 22.2478 756.465 21.1196 754.025C20.5642 752.823 19.8655 751.446 18.9525 750.441C15.3873 746.515 11.8589 740.114 6.33226 738.825C10.1761 740.279 11.9532 744.104 14.0388 747.295C12.4967 746.811 10.8765 746.779 9.39861 746.171C6.11795 744.82 3.53167 741.965 0.863937 739.75C3.53338 743.076 6.37255 748.286 10.9905 749.209C10.6845 749.721 10.4933 750.277 10.4179 750.875C12.3827 746.584 16.3645 750.703 17.4841 753.637C18.4939 756.284 19.3631 758.734 20.7227 761.253C22.09 763.787 23.5088 766.526 22.1603 769.375C19.2028 775.622 16.2188 781.713 14.1409 788.314C12.6218 785.453 10.4316 782.978 7.58898 780.794C5.70305 779.344 3.57195 777.788 2.55097 775.599C2.1875 774.866 -1.52005 773.186 -1.52005 773.786C-1.52005 773.782 1.48458 774.767 1.80604 775.873C2.26895 777.618 3.33964 779.098 4.48491 780.501C1.452 779.442 -1.68294 779.028 -4.799 778.326C-6.81694 777.88 -7.19755 771.658 -7.9905 770.023C-9.76241 766.39 -13.1279 763.857 -15.0027 760.303C-16.49 757.481 -16.8801 754.505 -16.9598 751.368C-17.0361 753.43 -17.0507 755.529 -16.5672 757.548C-15.3328 762.907 -10.3085 766.22 -8.89917 771.399Z" fill="#333333"/>
<path d="M255.124 789.951C252.196 794.716 248.865 797.149 243.948 799.816C247.82 796.397 251.625 792.497 251.676 787.062C251.342 790.825 249.192 793.843 246.391 796.316C246.314 794.249 248.085 791.942 249.263 790.332C248.111 791.667 245.191 794.792 245.862 796.773C243.265 798.987 240.289 800.764 237.794 803.097C235.095 805.51 230.128 807.074 226.662 807.985C221.743 809.281 216.625 809.359 211.567 809.359C218.246 805.12 222.972 796.537 231.525 795.809C238.165 795.244 249.531 791.988 249.412 783.643C249.148 787.619 245.788 790.236 242.368 791.811C242.483 789.216 244.063 786.545 245.639 784.536C243.924 786.401 241.889 789.139 241.711 791.74C241.546 793.409 235.307 793.901 233.889 793.959C237.251 792.218 240.544 789.946 242.707 786.81C243.778 785.376 244.609 784.432 245.257 782.755C245.804 781.339 246.101 780.07 246.045 779.249C245.87 780.269 245.602 781.39 244.847 782.857C243.883 784.732 242.329 786.341 240.828 787.827C237.881 790.745 232.502 793.782 228.332 794.24C229.386 792.893 230.323 791.466 231.307 790.071C234.275 789.857 236.917 784.544 237.035 782.9C236.118 785.337 234.351 788.642 231.675 789.538C233.59 786.748 234.123 784.106 233.109 780.894C233.98 784.727 232.684 787.213 230.238 790.139C228.98 791.703 227.722 793.302 226.246 794.677C224.819 796.009 222.865 796.406 221.217 797.447C217.371 799.952 214.636 803.415 210.535 805.669C208.882 806.605 206.235 808.901 203.492 809.477C196.319 809.827 190.243 812.359 185.614 817.95C186.56 810.108 188.593 802.968 194.757 797.611C197.229 795.437 199.94 793.462 202.11 790.975C202.767 790.223 205.539 789.943 206.516 789.682C208.683 789.105 210.783 788.447 212.856 787.593C215.765 786.394 218.477 784.909 221.15 783.276C223.51 781.488 226.553 780.728 228.995 779.164C234.849 775.412 243.879 772.111 246.391 764.988C243.938 770.502 236.812 773.542 231.627 775.906C232.644 774.389 233.455 772.8 234.193 771.137C235.96 771.345 237.765 770.019 238.844 768.779C237.695 769.908 236.053 770.885 234.371 770.731C235.453 768.251 235.94 768.012 238.524 767.15C240.469 766.502 242.328 765.689 243.976 764.469C241.541 765.987 238.804 766.592 236.037 767.236C237.941 764.206 240.829 762.042 243.976 760.381C240.891 761.708 238.054 763.488 235.886 766.06C236.815 763.43 238.002 760.916 239.9 758.82C236.551 761.971 235.414 766.21 233.54 769.793C232.967 767.541 233.474 765.351 234.769 763.428C233.265 765.314 232.222 768.124 233.167 770.486C231.894 772.829 230.401 775.312 228.441 777.176C227.423 778.141 225.098 778.733 223.685 779.333C221.706 780.173 219.843 781.179 217.914 782.113C219.022 780.804 219.899 778.978 221.324 778.284C223.197 777.494 224.674 775.734 226.012 774.278C224.547 775.639 222.819 777.464 220.791 777.918C221.913 774.833 225.504 772.977 228.126 771.306C224.579 773.184 221.782 774.666 219.745 778.193C216.829 783.241 211.69 784.951 206.22 785.951C210.84 780.106 212.78 773.761 215.36 766.939C217.785 760.525 223.543 756.548 229.032 752.8C221.913 756.869 215.912 761.05 212.766 768.83C210.981 760.201 213.053 751.366 222.449 748.744C230.128 746.6 243.736 744.639 243.977 733.998C243.019 743.197 231.396 745.193 224.133 746.259C225.905 744.878 227.605 743.388 229.21 741.822C229.894 741.154 230.556 740.469 231.187 739.755C232.262 739.673 233.213 739.14 234.077 738.535C236.559 739.765 239.95 736.056 241.41 734.295C239.89 735.852 237.128 738.616 234.664 738.09C236.611 736.563 238.459 734.556 239.599 732.364C237.99 734.933 235.034 737.85 232.046 738.745C234.039 736.296 236.662 732.602 236.912 729.319C237.063 727.321 237.052 721.848 235.521 720.324C236.858 722.924 236.593 726.704 236.519 727.801C236.348 727.613 235.828 726.843 235.562 726.863C237.902 730.238 232.688 735.812 230.515 737.995C227.586 740.938 224.107 743.478 220.425 745.436C221.837 743.297 222.257 741.071 223.926 739.235C225.545 737.452 226.419 735.121 227.371 732.958C226.181 735.163 225.016 737.907 222.853 739.37C222.978 738.651 222.919 736.106 223.384 735.583C224.331 734.662 224.966 733.37 225.559 732.214C224.935 733.221 224.269 734.249 223.432 735.101C223.852 732.126 224.765 729.243 227.522 727.607C222.757 729.942 222.895 735.606 221.562 739.976C220.391 737.472 220.443 734.111 221.03 731.472C220.254 733.978 219.952 737.133 220.74 739.674C221.24 742.417 219.454 744.386 217.461 746.416C213.089 750.87 209.047 754.007 207.561 760.438C205.743 756.858 204.887 753.556 206.233 749.649C207.483 746.014 209.736 742.796 210.465 738.978C208.631 745.639 202.52 750.552 204.684 758.007C206.244 763.379 209.493 769.863 206.804 775.287C204.725 779.479 201.007 783.046 197.637 786.297C195.654 788.21 193.178 787.959 190.737 789.211C188.099 790.566 185.89 792.724 184.185 795.104C184.031 793.634 184.269 792.529 184.087 791.216C183.819 788.947 182.764 786.916 182.404 784.671C181.674 780.107 181.238 774.673 184.017 770.664C187.652 768.494 189.464 766.757 190.857 762.612C191.985 759.255 191.889 756.48 189.935 753.471C192.505 758.248 190.608 765.466 185.72 768.248C189.068 763.45 189.216 758.676 186.765 753.471C187.733 756.039 188.433 758.902 187.873 761.638C187.103 765.391 184.319 767.238 182.226 770.065C182.754 767.931 183.852 765.973 185.104 764.173C181.527 768.512 179.895 774.253 179.621 779.8C177.744 776.013 175.111 772.651 172.768 769.145C170.722 766.084 169.865 762.964 169.193 759.409C167.689 751.464 179.481 748.381 185.254 747.377C178.817 747.98 171.947 749.316 168.404 755.249C167.673 751.395 165.917 746.489 167.456 742.731C169.32 738.18 176.989 736.484 181.596 736.233C181.824 737.085 185.285 737.814 186.37 738.158C186.777 738.287 194.521 739.116 193.558 737.418C194.075 738.488 190.239 738.162 188.883 738.058C187.2 737.929 184.722 737.25 183.495 736.497C189.49 736.497 193.118 736.91 197.782 732.217C195.032 734.536 192.238 735.981 188.545 735.861C189.922 734.979 190.918 733.657 192.198 732.661C190.971 733.466 189.96 734.552 188.709 735.328C187.252 736.229 185.23 735.131 183.628 734.896C180.312 734.419 176.585 734.923 173.356 735.752C175.621 731.594 178.061 730.591 182.942 730.344C184.341 730.274 186.129 730.05 187.292 730.097C189.55 730.187 192.313 730.898 193.406 728.201C192.488 730.045 190.325 730.261 188.491 729.857C191.235 729.783 192.641 726.474 193.557 724.487C190.983 729.048 188.766 729.558 183.553 729.312C184.665 727.847 186.781 726.232 188.423 725.527C186.764 726.091 183.751 727.685 182.95 729.294C181.118 730.01 178.513 729.17 176.465 729.928C174.112 730.725 173.134 732.433 171.853 734.385C170.561 736.445 169.864 736.845 167.86 738.195C167.841 738.012 168.411 736.708 168.304 736.553C167.277 738.657 164.894 741.236 164.273 743.578C164.092 742.39 164.131 741.199 164.265 740.008C164.503 737.896 164.911 737.546 166.289 736.098C168.16 734.132 169.491 731.756 170.761 729.392C169.173 731.852 167.482 734.554 165.039 736.283C166.269 732.083 168.58 728.344 171.969 725.527C164.419 730.836 161.379 739.948 163.554 748.642C164.574 752.72 164.73 757.563 165.149 761.974C162.859 759.187 158.888 755.478 157.977 752.029C156.817 747.988 156.034 743.983 153.704 740.392C155.547 743.814 156.124 747.467 156.807 751.24C154.323 748.024 150.681 744.974 149.135 741.184C148.4 739.385 150.027 737.929 150.449 736.124C150.856 734.381 150.714 732.589 150.232 730.878C150.827 733.918 150.083 736.472 148.456 739.074C147.071 733.588 146.51 728.706 143.892 723.595C145.968 728.604 146.318 733.198 147.047 738.503C144.053 734.071 143.796 728.55 140.42 724.338C142.146 726.888 142.914 729.762 143.511 732.736C141.602 731.054 140.268 728.591 139.816 726.122C140.031 728.241 141.552 732.991 143.662 733.489C143.812 734.222 143.962 734.934 144.22 735.641C141.85 735.652 139.978 732.792 138.91 731.044C139.811 732.888 141.815 736.498 144.3 736.498C145.201 736.498 146.937 741.132 147.409 742.034C147.964 743.096 148.87 744.325 149.946 745.846C151.931 748.652 153.925 751.439 155.8 754.32C153.189 752.826 150.387 751.692 147.647 750.455C145.241 749.37 141.64 748.594 140.449 746.103C139.203 743.498 138.795 740.588 137.571 737.963C136.456 735.57 135.075 733.383 133.628 731.176C134.882 733.47 136.075 735.741 136.985 738.193C137.953 740.797 138.167 743.577 139.069 746.191C136.228 744.075 135 740.583 133.493 737.54C131.956 735.115 130.275 732.841 128.496 730.582C129.76 732.486 131.125 734.38 132.135 736.432C133.451 738.919 134.141 741.675 135.522 744.127C132.412 741.897 129.697 738.55 129.099 734.743C129.999 746.801 145.465 750.792 153.691 756.523C150.292 757.085 146.872 757.91 144.497 754.808C146.611 758.076 150.102 757.652 153.552 757.335C155.516 757.155 158.653 758.68 160.012 760.13C162.035 763.231 165.39 765.982 166.801 768.883C170.502 777.838 176.75 784.97 177.053 794.923C177.28 801.664 176.231 808.418 175.563 815.115C172.765 811.995 169.98 808.967 166.702 806.335C165.121 805.066 164.274 804.042 163.327 802.366C161.203 798.61 158.175 794.389 153.51 793.762C149.876 793.273 147.825 792.576 145.369 790.068C142.875 787.52 141.428 784.425 140.673 781.009C140.139 778.864 140.278 776.566 140.08 774.381C139.865 772.026 140.302 770.714 140.804 768.437C140.979 767.762 143.24 765.422 143.86 764.272C144.787 762.555 145.036 761.027 144.648 759.118C144.896 761.299 144.339 762.762 143.161 764.588C142.929 763.112 143.652 761.689 143.892 760.157C142.655 762.817 143.356 765.117 141.105 767.184C142.015 763.079 140.322 760.502 138.155 757.184C139.209 759.122 140.697 761.172 140.809 763.432C139.49 762.713 138.525 761.443 137.703 760.231C138.477 761.598 139.379 762.858 140.678 763.778C141.61 764.377 139.61 768.988 139.242 769.869C138.508 767.379 137.64 764.877 136.644 762.482C135.878 760.678 135.372 759.817 135.692 757.89C135.971 756.207 136.241 754.512 135.592 752.88C136.198 754.907 135.494 756.91 135.05 758.894C134.104 756.787 133.188 754.655 132.569 752.427C132.906 754.26 133.444 756.049 134.034 757.816C132.852 756.711 131.627 754.856 131.212 753.32C131.648 755.672 132.912 756.646 134.155 758.372C134.798 759.263 135.396 761.691 135.795 762.986C133.641 763.083 130.597 759.603 129.699 758.491C128.78 757.353 128.57 756.081 128.645 754.659C128.307 757.145 129.256 758.96 131.073 760.63C131.856 761.35 134.698 763.735 135.98 763.576C137.505 768.423 138.061 773.14 137.938 778.205C135.522 774.387 130.745 770.54 130.623 765.982C130.608 766.524 130.491 766.892 130.668 767.807C129.607 765.698 129.337 763.515 129.099 761.196C129.228 767.135 131.651 770.985 134.87 775.899C137.019 779.001 137.858 782.171 138.903 785.559C136.141 784.748 133.207 782.457 130.888 780.902C128.447 779.263 128.725 777.537 128.008 774.76C127.357 772.965 126.665 771.217 125.778 769.52C127.013 772.439 128.107 775.71 128.107 778.901C123.991 775.69 121.008 771.354 121.1 765.952C120.867 768.318 121.308 770.857 122.185 773.049C121.119 772.826 120.193 771.781 119.515 771.005C120.096 771.791 120.863 772.765 121.777 773.175C122.75 773.717 123.181 775.211 123.91 776.153C125.082 777.667 126.277 778.981 127.721 780.262C128.496 780.948 136.492 785.627 139.647 787.54C140.771 790.123 142.441 792.47 144.493 794.419C144.267 794.49 143.62 794.367 142.69 794.378C146.618 795.777 153.52 796.79 156.345 800.106C145.93 796.327 134.06 795.787 124.301 790.573C121.142 788.886 119.693 786.38 117.031 784.812C114.882 783.548 113.244 781.812 111.833 779.741C110.765 778.172 109.989 776.443 109.602 774.589C109.147 772.41 109.771 771.97 110.037 769.952C110.372 767.39 110.569 764.33 108.948 762.162C109.898 763.671 110.055 765.188 109.806 766.912C109.3 765.202 108.439 763.608 107.514 762.087C108.869 764.784 110.449 768.203 108.951 771.168C108.195 768.087 106.133 765.301 104.192 762.831C105.824 765.291 107.4 767.935 108.117 770.813C108.987 774.867 108.953 778.309 111.403 781.915C108.995 780.672 104.845 779.054 103.412 776.612C102.253 774.949 102.306 772.609 101.304 770.818C100.477 769.336 99.3632 768.029 98.5329 766.546C99.9964 769.736 101.286 772.255 102.138 775.696C99.6456 773.242 98.1862 770.157 97.2503 766.843C98.2327 771.823 100.676 775.569 104.214 778.864C107.061 781.515 110.554 783.26 113.748 785.444C115.897 786.913 117.62 788.897 119.5 790.668C116.983 790.523 114.894 792.216 112.794 793.306C110.306 794.706 109.189 794.868 107.515 792.774C106.477 791.313 104.822 790.432 104.323 788.723C103.751 786.769 102.643 784.911 101.778 783.071C102.531 785.124 103.435 787.167 103.944 789.295C102.637 788.423 101.174 787.782 99.7817 787.057C99.2524 785.91 98.527 784.895 97.7026 783.936C98.3663 784.85 98.9565 785.8 99.3784 786.844C97.9909 786.099 96.677 785.212 95.7411 783.936C97.2942 786.451 100.181 787.697 102.571 789.28C104.631 790.586 105.868 792.588 107.376 794.659C103.372 794.756 93.8844 792.875 91.8154 788.693C93.3855 792.68 101.796 795.279 105.482 795.844C107.893 796.212 110.337 796.142 112.659 795.374C114.934 794.622 116.92 793.077 119.38 792.904C124.054 792.577 128.956 796.558 133.29 797.97C137.4 799.31 141.579 800.47 145.636 801.96C148.242 802.917 150.861 803.882 153.419 804.952C159.168 807.361 163.597 812.197 167.432 816.903C168.673 818.426 168.786 820.87 169.209 822.715C170.054 826.393 170.809 830.089 171.503 833.798C172.128 837.135 172.811 840.302 172.609 843.694C172.391 847.336 170.186 851.457 170.344 855.104C172.382 855.382 176.83 855.771 178.682 856.029C182.984 856.628 188.615 856.301 191.408 854.468C191.343 853.336 190.512 850.371 190.433 849.115C190.31 847.17 190.343 845.23 190.157 843.288C189.737 838.921 187.744 834.791 188.109 830.394C189.132 825.206 191.314 820.559 195.925 817.515C199.962 814.85 205.269 814.8 209.945 814.427C215.34 813.998 220.802 813.626 226.012 812.077C231.619 810.41 236.52 807.296 241.346 804.114C245.699 801.243 251.565 798.486 254.134 793.75C256.438 789.896 259.601 784.362 258.746 779.682C259.082 782.002 256.902 787.021 255.124 789.951Z" fill="#333333"/>
<path d="M370.423 748.749C375.894 748.201 381.128 745.073 386.076 744.067C386.084 744.066 386.08 744.067 386.091 744.065C395.152 742.304 403.472 740.475 404.778 729.81C403.39 735.045 399.239 739.608 393.653 740.333C398.403 737.256 398.892 733.648 398.744 728.309C398.241 732.817 397.693 736.268 393.21 738.523C389.428 740.425 387.251 740.313 383.11 740.726C390.833 735.159 396.51 727.277 393.668 717.517C392.814 714.588 391.113 712.542 391.622 709.523C392.269 705.711 393.029 701.836 393.773 698.025C392.499 701.72 391.192 705.486 390.031 709.202C388.278 705.299 389.017 702.283 388.792 698.212C388.655 695.739 387.429 693.772 384.775 693.493C390.475 694.855 386.512 701.463 386.719 705.046C384.219 703.743 382.727 699.716 383.112 697.075C382.704 698.514 382.738 700.031 383.225 701.451C383.747 702.965 386.807 705.806 386.884 706.713C387.715 712.175 390.841 717.096 390.006 722.769C389.471 719.109 387.575 716.529 385.222 713.736C384.827 713.265 381.201 710.678 380.818 705.62C379.729 709.122 383.279 713.106 385.009 715.911C380.649 715.711 377.291 711.362 377.114 707.319C376.83 710.347 378.149 713.36 380.395 715.426C383.363 718.153 386.703 716.675 387.224 721.23C387.513 723.573 386.896 725.888 387.143 728.212C387.312 730.123 383.736 732.199 382.237 733.165C378.021 735.881 373.285 737.714 368.695 739.715C370.112 738.274 372.223 733.884 372.229 733.883C373.595 731.138 376.321 729.02 378.181 726.602C380.312 723.923 380.943 720.507 381.466 717.238C379.961 722.183 377.738 725.069 373.933 728.578C374.79 723.516 374.786 718.647 371.637 714.359C374.829 720.259 373.106 728.007 369.345 733.302C368.681 728.945 370.681 726.767 372.991 723.022C371.415 724.927 369.506 726.602 368.314 728.788C368.353 726.356 368.151 722.056 370.059 720.22C367.667 721.981 366.73 728.435 367.118 730.97C367.606 734.164 367.64 736.254 364.778 738.134C362.276 739.785 360.277 741.945 358.883 744.584C357.614 746.987 355.253 748.803 353.721 751.124C351.951 753.809 350.555 756.702 348.868 759.436C345.579 764.767 341.102 766.569 335.118 767.903C334.697 765.174 333.716 762.279 334.759 760.055C335.464 758.532 336.615 757.106 337.584 755.73C339.534 752.967 341.817 750.164 344.574 747.944C347.599 748.369 351.778 746.61 353.369 743.885C351.912 745.712 348.308 747.28 345.9 746.929C351.812 742.655 357.203 738.746 361.31 732.639C357.158 737.279 352.197 740.735 346.559 743.434C347.835 740.8 348.57 739.78 350.808 738.074C352.068 737.113 355.673 735.392 355.673 733.452C355.673 735.303 350.837 737.054 349.485 737.715C351.206 734.522 354.228 732.643 357.288 730.837C351.917 733.104 348.994 735.796 345.72 740.493C344.166 742.725 343.052 745.178 340.794 746.736C338.037 748.642 335.526 751 333.402 753.569C333.022 746.999 333.12 741.235 337.75 735.972C341.761 731.415 345.51 731.065 351.134 729.399C358.047 727.351 358.624 721.394 362.518 717.154C364.173 715.265 365.126 713.218 366.352 711.01C367.592 708.774 368.583 704.377 368.466 703.403C366.151 711.128 363.995 713.039 363.112 713.894C364.232 710.021 367.106 701.094 362.333 698.443C368.267 702.795 359.487 717.345 356.251 721.104C356.912 717.696 357.62 713.703 359.889 710.937C357.012 713.575 355.788 717.822 354.555 721.378C353.518 725.684 348.052 724.88 344.368 725.351C346.07 723.495 347.717 721.696 349.094 719.588C350.52 717.407 352.92 716.573 354.681 714.572C357.256 711.647 357.532 707.9 357.563 704.207C357.573 702.8 356.97 699.875 357.909 698.66C356.675 699.811 357.028 702.713 356.815 704.148C356.237 708.032 355.372 711.749 351.788 714.008C354.061 707.499 353.813 699.277 347.209 694.967C351.746 698.867 352.446 705.963 350.128 711.008C349.049 708.573 347.313 704.578 347.69 701.972C346.337 706.704 350.637 710.796 347.907 715.167C345.628 718.818 342.045 721.374 338.768 724.099C339.445 719.196 341.111 715.463 344.45 711.722C341.661 714.105 339.056 716.967 337.773 720.423C336.591 724.193 335.903 726.849 333.117 729.767C327.642 735.497 324.446 740.601 323.654 748.561C320.805 745.303 319.444 741.677 319.222 737.672C318.862 731.241 322.724 727.47 327.449 723.789C329.655 722.014 331.596 719.958 333.285 717.707C336.09 717.313 338.498 714.666 340.278 712.733C343.757 708.954 343.56 706.231 344.382 701.414C343.616 703.851 343.789 706.585 342.198 708.724C340.632 710.83 337.909 712.69 335.66 714.008C338.527 708.782 338.301 703.738 338.733 698.011C337.283 704.605 336.588 710.024 331.773 715.243C332.628 710.66 334.061 706.185 335.768 701.844C332.134 708.303 330.917 717.724 324.005 721.28C325.606 717.439 328.034 713.029 328.65 708.877C329.056 706.855 328.681 704.722 328.835 702.674C329.096 700.254 331.013 698.03 331.956 695.839C330.692 697.909 328.753 699.748 327.87 702.029C327.137 704.125 327.669 706.792 326.56 708.731C325.313 704.854 324.5 702.199 324.5 698.151C324.5 699.376 323.843 700.703 323.836 702.01C323.826 704.969 325.132 707.676 325.268 710.606C325.447 713.484 321.832 717.48 320.322 720.014C317.621 716.507 319.279 713.957 319.869 709.676C320.029 708.528 320.683 697.293 319.411 697.762C320.079 697.515 319.61 703.716 319.559 703.967C318.857 707.581 317.866 711.237 316.573 714.695C313.467 709.849 313.985 702.414 316.584 697.482C314.978 699.732 314.033 702.289 313.549 704.981C309.978 701.524 308.033 693.396 310.312 688.968C307.357 693.18 308.49 700.235 310.532 704.655C308.696 704.019 306.924 703.586 305.198 702.611C306.059 701.018 305.841 698.91 305.658 697.203C305.575 696.415 304.91 687.392 302.929 688.03C305.408 690.472 305.2 698.764 303.524 701.489C300.849 699.427 299.034 694.797 300.607 691.633C297.661 695.988 300.985 701.95 304.722 704.556C301.969 704.899 298.854 705.816 296.321 704.243C293.909 702.745 292.898 700.056 289.63 699.825C292.212 700.245 293.066 702.405 294.607 704.166C296.056 705.647 298.469 706.777 301.141 706.849C305.26 706.962 308.877 706.368 312.004 709.003C311.012 709.812 310.19 710.822 309.077 711.465C306.323 712.983 305.121 713.701 302.205 712.981C303.024 713.559 304.207 713.865 305.376 713.67C306.82 713.427 308.182 712.897 309.537 712.374C310.83 711.841 311.868 710.899 313.052 710.171C312.981 713.369 314.352 716.048 315.788 718.852C316.437 720.07 316.987 721.375 317.79 722.506C318.832 723.863 316.83 725.658 316.081 727.053C314.601 729.814 313.479 732.773 312.947 735.851C311.693 732.76 308.604 728.092 309.025 724.788C309.399 721.625 310.618 717.484 307.522 715.196C309.185 716.804 309.115 718.979 308.622 721.048C307.866 720.78 307.225 719.446 306.091 715.364C305.803 715.364 307.025 721.729 308.447 721.763C308.25 722.476 308.046 723.186 307.835 723.895C305.913 720.3 303.615 716.925 300.603 714.103C307.455 722.371 306.639 732.789 311.416 741.739C313.197 745.077 314.873 748.382 316.512 751.82C318.651 756.3 319.237 760.856 320.344 765.662C316.09 763.216 311.096 761.61 307.793 757.834C305.905 755.676 303.384 750.705 303.896 747.934C304.534 744.472 307.431 742.538 307.086 738.642C306.939 741.529 305.457 743.347 303.747 745.548C304.526 739.461 305.899 734.531 301.349 729.491C304.327 733.865 303.877 737.912 302.238 742.698C301.641 740.411 300.053 737.811 299.872 735.672C299.609 732.525 298.983 729.649 297.58 726.793C298.353 729.205 298.787 731.639 298.699 734.175C297.321 731.947 295.852 729.779 295.021 727.286C296.158 733.429 299.428 738.609 300.169 744.988C294.994 740.514 292.335 731.03 292.335 725.207C292.262 725.063 297.069 713.079 296.775 707.286C296.361 712.079 294.175 716.617 291.62 720.653C291.452 715.318 291.69 711.359 289.338 706.456C291.115 711.987 290.051 716.527 289.438 722.192C285.897 716.79 284.254 712.318 283.805 705.794C283.474 710.076 283.253 714.927 284.968 718.52C286.271 721.254 287.846 723.955 288.898 726.8C290.481 730.615 290.342 735.769 291.165 739.89C291.975 743.519 293.701 746.582 296.23 749.365C297.651 750.931 299.305 752.376 301.285 753.225C301.55 754.604 301.898 755.957 302.375 757.282C304.497 763.18 309.493 765.82 314.149 769.411C306.733 768.359 299.028 765.246 293.344 760.416C287.825 755.802 287.095 747.949 285.535 741.467C284.168 735.788 284.565 730.232 283.249 724.485C282.371 721.04 282.19 717.469 281.036 714.08C280.522 712.574 279.844 711.101 278.888 709.813C278.654 709.501 276.319 707.49 276.319 707.277C276.319 707.911 278.727 710.486 279.058 711.306C280.258 714.239 280.371 717.471 280.468 720.588C277.355 718.543 276.052 715.899 275.82 712.23C275.535 716.024 276.535 719.064 279.445 721.572C281.529 723.363 280.945 727.493 280.861 730.054C279.421 728.192 277.663 726.669 275.734 725.315C273.531 723.767 274.491 721.698 273.132 719.459C272.935 716.261 273.15 711.921 270.445 709.584C272.051 712.274 272.122 714.904 271.937 717.925C269.238 715.348 267.447 711.973 267.174 708.267C266.807 713.971 271.934 718.053 271.974 722.795C267.45 719.825 262.064 717.674 259.285 712.827C261.609 718.594 268.294 722.442 272.396 726.115C280.527 733.283 279.787 741.631 281.125 751.568C276.646 746.404 271.385 741.074 267.855 735.247C264.781 730.093 264.861 724.067 258.06 721.881C262.728 724.105 263.921 728.471 264.853 733.097C260.917 730.036 257.382 728.747 252.506 727.869C259.995 730.276 264.25 734.549 268.374 740.894C264.51 740.42 261.102 737.927 257.187 737.765C253.041 737.825 252.18 738.782 248.662 736.24C246.079 734.372 243.235 732.572 241.074 730.223C243.163 733.227 246.211 735.858 248.946 738.292C252.236 741.54 256.635 739.606 260.495 741.806C263.15 743.318 265.878 744.473 268.81 745.332C271.662 746.143 271.903 746.378 273.57 749.125C275.093 751.637 276.6 754.158 278.286 756.571C266.333 753.773 255.727 747.417 243.086 747.021C255.581 749.096 265.308 756.88 276.81 761.246C273.431 763.448 270.26 764.765 266.179 764.992C261.297 765.262 258.47 762.296 253.919 765.712C258.069 763.47 260.312 765.315 264.327 766.327C259.575 767.124 254.775 767.651 249.993 768.259C259.609 768.323 274.448 770.178 281.552 762.743C284.502 763.461 286.796 765.84 288.2 767.337C293.811 773.348 301.678 777.726 309.488 780.344C312.472 781.343 322.82 781.481 323.245 785.203C324.789 789.119 324.025 794.111 323.83 798.225C324.536 808.796 324.823 826.318 324.363 829.621C322.656 841.865 322.062 848.099 321.374 856.306C329.784 856.306 336.578 856.306 344.988 856.306C344.419 845.755 340.451 839.663 341.762 828.47C342.51 822.085 340.426 811.258 339.414 803.666C338.949 800.175 339.721 793.895 339.094 790.427C338.713 788.41 337.327 783.003 339.366 782.299C344.728 780.425 350.014 778.035 353.964 773.897C358.524 769.117 360.317 762.944 366.327 759.408C369.721 757.411 373.299 759.465 376.809 759.746C378.357 759.924 379.605 761.193 381.043 761.709C383.815 762.883 386.945 761.609 389.514 760.552C386.256 761.403 382.953 762.012 380.155 759.773C383.624 759.496 386.825 758.256 389.918 756.765C383.84 758.751 378.914 758.62 372.948 756.566C378.263 754.892 384.648 752.762 390.209 754.491C384.868 752.01 378.273 753.274 372.705 754.201C374.826 752.667 376.781 751.333 379.328 750.55C379.787 750.408 384.046 749.29 384.046 749.29C384.046 748.17 372.479 752.292 371.611 752.753C368.471 754.482 366.149 755.59 362.877 757.286C364.597 753.398 366.922 750.988 370.423 748.749Z" fill="#333333"/>
<path d="M0.333008 851.16V873.897H411.999V851.16C370.301 852.756 281.867 854.989 261.717 851.16C236.53 846.373 200.149 846.852 132.984 851.16C79.252 854.606 22.1617 852.596 0.333008 851.16Z" fill="#333333"/>
</g>
<defs>
<clipPath id="clip0_1025_8046">
<rect width="402" height="874" fill="white"/>
</clipPath>
</defs>
</svg>
