<svg width="21" height="21" viewBox="0 0 21 21" fill="none" xmlns="http://www.w3.org/2000/svg">
<g clip-path="url(#clip0_1990_729)">
<path d="M1.5 1.3335H4.83333L7.06667 12.4918C7.14287 12.8755 7.35159 13.2201 7.65629 13.4654C7.96099 13.7107 8.34225 13.841 8.73333 13.8335H16.8333C17.2244 13.841 17.6057 13.7107 17.9104 13.4654C18.2151 13.2201 18.4238 12.8755 18.5 12.4918L19.8333 5.50016H5.66667M9 18.0002C9 18.4604 8.6269 18.8335 8.16667 18.8335C7.70643 18.8335 7.33333 18.4604 7.33333 18.0002C7.33333 17.5399 7.70643 17.1668 8.16667 17.1668C8.6269 17.1668 9 17.5399 9 18.0002ZM18.1667 18.0002C18.1667 18.4604 17.7936 18.8335 17.3333 18.8335C16.8731 18.8335 16.5 18.4604 16.5 18.0002C16.5 17.5399 16.8731 17.1668 17.3333 17.1668C17.7936 17.1668 18.1667 17.5399 18.1667 18.0002Z" stroke="white" stroke-width="2" stroke-linecap="round" stroke-linejoin="round"/>
</g>
<defs>
<clipPath id="clip0_1990_729">
<rect width="20" height="20" fill="white" transform="translate(0.666992 0.5)"/>
</clipPath>
</defs>
</svg>
