<svg width="175" height="215" viewBox="0 0 175 215" fill="none" xmlns="http://www.w3.org/2000/svg">
<g filter="url(#filter0_d_858_1904)">
<path d="M85.5 13C125.54 13.0002 158 45.4595 158 85.5C158 98.0991 154.784 109.947 149.132 120.27C149.111 120.665 149.072 121.06 149.012 121.453C144.818 148.895 141.822 172.375 142.421 184.958C143.02 197.541 126.5 202.288 126.5 183.001C126.5 165.732 122.807 163.337 117.89 161.361C114.719 160.088 110.686 161.54 109.459 164.729L109.359 164.987C108.41 167.455 105.703 168.757 103.183 167.958C98.7568 166.556 94.7787 171.554 96.5137 175.86C99.2822 182.732 100.693 190.33 95.6855 193.946C87.4305 199.908 76.8717 200.599 73.875 186.904C73.5971 185.634 73.1721 184.382 72.7051 183.169C71.6448 180.414 69.9209 174.326 69.9209 163.874C69.9209 159.997 64.6751 167.517 60.2344 169.046C54.3568 171.069 48.4834 162.57 44.8779 167.634C42.4576 171.033 40.7149 175.586 39.9629 181.25C36.4052 208.044 21.1122 195.415 25.4395 172.974C25.5298 172.505 25.5975 172.024 25.6221 171.548C25.7264 169.523 25.973 163.564 25.582 158.481C25.1824 153.286 26.0048 134.485 23.7432 125.482C23.4683 124.388 23.1579 123.259 22.916 122.12C16.6138 111.373 13 98.8588 13 85.5C13 45.4594 45.4594 13 85.5 13Z" fill="#C4C4C4"/>
</g>
<defs>
<filter id="filter0_d_858_1904" x="0" y="0" width="175" height="214.994" filterUnits="userSpaceOnUse" color-interpolation-filters="sRGB">
<feFlood flood-opacity="0" result="BackgroundImageFix"/>
<feColorMatrix in="SourceAlpha" type="matrix" values="0 0 0 0 0 0 0 0 0 0 0 0 0 0 0 0 0 0 127 0" result="hardAlpha"/>
<feOffset dx="2" dy="2"/>
<feGaussianBlur stdDeviation="7.5"/>
<feComposite in2="hardAlpha" operator="out"/>
<feColorMatrix type="matrix" values="0 0 0 0 0 0 0 0 0 0 0 0 0 0 0 0 0 0 0.2 0"/>
<feBlend mode="normal" in2="BackgroundImageFix" result="effect1_dropShadow_858_1904"/>
<feBlend mode="normal" in="SourceGraphic" in2="effect1_dropShadow_858_1904" result="shape"/>
</filter>
</defs>
</svg>
