<svg width="60" height="61" viewBox="0 0 60 61" fill="none" xmlns="http://www.w3.org/2000/svg">
<rect y="0.333496" width="60" height="60" rx="15" fill="white"/>
<path fill-rule="evenodd" clip-rule="evenodd" d="M42.96 30.6403C42.96 29.683 42.8741 28.7625 42.7145 27.8789H30V33.101H37.2655C36.9525 34.7885 36.0014 36.2182 34.5716 37.1755V40.5628H38.9345C41.4873 38.2125 42.96 34.7516 42.96 30.6403Z" fill="#4285F4"/>
<path fill-rule="evenodd" clip-rule="evenodd" d="M29.9996 43.8334C33.6446 43.8334 36.7005 42.6246 38.9342 40.5628L34.5712 37.1755C33.3624 37.9855 31.816 38.4641 29.9996 38.4641C26.4835 38.4641 23.5074 36.0893 22.4458 32.8984H17.9355V36.3962C20.1569 40.8082 24.7224 43.8334 29.9996 43.8334Z" fill="#34A853"/>
<path fill-rule="evenodd" clip-rule="evenodd" d="M22.4461 32.8987C22.1761 32.0887 22.0227 31.2235 22.0227 30.3337C22.0227 29.444 22.1761 28.5787 22.4461 27.7687V24.271H17.9359C17.0216 26.0935 16.5 28.1553 16.5 30.3337C16.5 32.5121 17.0216 34.574 17.9359 36.3965L22.4461 32.8987Z" fill="#FBBC05"/>
<path fill-rule="evenodd" clip-rule="evenodd" d="M29.9996 22.2028C31.9817 22.2028 33.7612 22.884 35.1603 24.2217L39.0324 20.3496C36.6944 18.1712 33.6385 16.8335 29.9996 16.8335C24.7224 16.8335 20.1569 19.8587 17.9355 24.2708L22.4458 27.7685C23.5074 24.5776 26.4835 22.2028 29.9996 22.2028Z" fill="#EA4335"/>
</svg>
