<svg width="100" height="260" viewBox="0 0 100 260" fill="none" xmlns="http://www.w3.org/2000/svg">
<g filter="url(#filter0_d_858_1874)">
<path d="M45.7784 224.203C48.8116 221.756 53.9265 219.835 55.92 216.966C58.1379 213.772 58.6027 210.35 61.2753 207.191C62.4814 205.765 64.1664 204.557 61.4336 203.46C59.1436 202.542 56.0663 202.092 53.5759 201.394C50.9353 200.654 48.4911 199.854 45.7062 199.327L45.6722 199.375C49.3205 201.038 53.5919 202.054 57.3605 203.606C58.1238 203.921 60.2716 204.562 60.4159 205.172C60.494 205.504 59.1617 206.578 58.8952 206.906C58.0217 207.991 57.2564 209.111 56.5972 210.251C55.1186 212.806 54.8442 215.648 52.9789 218.108C51.2459 220.395 47.5154 221.888 45.3977 224.065C45.2454 224.22 45.6101 224.338 45.7784 224.203Z" fill="#333333"/>
<path d="M58.6335 219.988C61.9072 217.92 64.5658 215.685 65.6738 212.847C67.0482 209.32 67.3788 205.571 68.11 201.98C68.1601 201.737 67.7754 201.459 67.3988 201.408C59.9738 200.419 51.7575 198.883 44.1182 199.07C43.6354 199.082 43.5753 199.469 44.008 199.568C47.9409 200.467 52.1822 200.733 56.2934 201.217C58.359 201.46 60.4206 201.713 62.4782 201.975C65.4895 202.361 65.6137 202.383 65.7659 204.2C65.9803 206.756 64.8663 210.119 64.0108 212.566C63.0432 215.338 61.4564 217.702 58.4411 219.87L58.6335 219.988Z" fill="#333333"/>
<path d="M44.1528 198.887C48.8771 197.869 53.8477 197.298 58.7703 196.763C62.5589 196.35 67.1809 196.314 70.4005 194.913C74.103 193.304 77.1964 190.696 80.2598 188.657C82.4997 187.167 84.5372 185.807 84.1926 183.654C84.1585 183.44 83.6457 183.365 83.5475 183.6C82.4015 186.346 78.681 188.199 75.4394 190.058C72.1536 191.942 69.2265 193.944 64.7006 194.595C57.5682 195.621 50.4578 196.466 44.0566 198.75L44.1528 198.887Z" fill="#333333"/>
<path d="M68.1177 167.42C71.0668 171.359 72.91 175.639 73.5752 179.948C73.9418 182.326 74.1341 183.705 71.772 185.902C70.1492 187.412 67.9915 188.949 65.7175 190.109C62.013 191.999 56.7879 192.894 52.6928 194.509C48.9923 195.967 45.2758 197.564 42.3848 199.616L42.505 199.69C47.0209 196.967 52.7649 195.017 58.7152 193.77C64.3531 192.587 68.2358 190.999 71.9363 188.078C75.7189 185.094 76.0255 183.031 75.1459 179.327C74.1281 175.034 71.6338 171.142 68.1918 167.395L68.1177 167.42Z" fill="#333333"/>
<path d="M42.8969 202.482C44.5778 202.563 45.3993 201.37 44.8984 200.498C44.1731 199.239 41.5686 200.682 43.2735 201.264C44.1451 201.561 43.4699 202.126 42.8428 202.361L42.8969 202.482Z" fill="#333333"/>
<path d="M39.6538 224.063C37.7365 222.09 34.4508 220.771 32.5575 218.824C30.1313 216.327 30.0251 212.966 28.4543 210.25C27.8833 209.263 27.2302 208.297 26.4989 207.351C26.1363 206.879 25.1205 206.102 25.0264 205.6C24.8661 204.738 25.6534 204.458 26.9657 203.877C30.8725 202.143 35.5066 201.139 39.3794 199.373L39.3473 199.325C36.8249 199.801 34.6351 200.485 32.2489 201.17C29.5502 201.944 26.1203 202.455 23.6199 203.458C20.8731 204.559 22.562 205.75 23.7781 207.189C26.4528 210.35 26.9156 213.767 29.1335 216.964C31.119 219.826 36.2519 221.764 39.2732 224.2C39.4395 224.334 39.8041 224.218 39.6538 224.063Z" fill="#333333"/>
<path d="M26.6108 219.87C23.5995 217.704 22.0167 215.322 21.041 212.566C20.1876 210.151 19.0756 206.705 19.286 204.2C19.4322 202.465 19.332 202.675 21.6921 202.088C23.7818 201.569 26.5426 201.477 28.7585 201.217C32.8696 200.733 37.109 200.467 41.0439 199.568C41.4726 199.47 41.4205 199.082 40.9337 199.07C33.2904 198.883 25.0741 200.419 17.6531 201.408C17.2825 201.457 16.8918 201.736 16.9419 201.98C17.6751 205.576 18.0238 209.311 19.3781 212.847C20.468 215.689 23.1467 217.923 26.4184 219.988L26.6108 219.87Z" fill="#333333"/>
<path d="M40.9921 198.748C34.591 196.462 27.4806 195.618 20.3502 194.593C15.8263 193.942 12.8992 191.941 9.61142 190.056C6.37177 188.197 2.64929 186.343 1.50329 183.597C1.40712 183.364 0.892243 183.435 0.858183 183.651C0.515587 185.792 2.55111 187.173 4.79302 188.655C7.89443 190.705 10.9478 193.261 14.6523 194.911C17.8298 196.326 22.526 196.352 26.2825 196.761C31.2051 197.296 36.1757 197.867 40.9 198.884L40.9921 198.748Z" fill="#333333"/>
<path d="M16.8552 167.393C13.4173 171.137 10.9109 175.035 9.90111 179.325C9.0356 182.998 9.34411 185.114 13.1107 188.076C16.8292 191 20.6739 192.58 26.3317 193.767C32.2801 195.014 38.0261 196.966 42.542 199.688L42.6622 199.614C39.8954 197.651 36.3833 196.129 32.8652 194.714C28.6017 193 23.2164 192.079 19.3276 190.106C17.3321 189.094 15.4969 187.786 14.0103 186.486C11.7663 184.526 11.0772 182.783 11.3957 180.432C12.0048 175.956 13.866 171.507 16.9273 167.418L16.8552 167.393Z" fill="#333333"/>
<path d="M42.2071 202.358C41.58 202.123 40.9068 201.558 41.7763 201.261C43.4813 200.679 40.8767 199.237 40.1515 200.495C39.6506 201.366 40.472 202.56 42.1529 202.479L42.2071 202.358Z" fill="#333333"/>
<path d="M40.084 199.47C40.084 198.645 41.1738 197.977 42.5202 197.977C43.8645 197.977 44.9564 198.645 44.9564 199.47C44.9564 200.295 43.8665 200.963 42.5202 200.963C41.1758 200.963 40.084 200.295 40.084 199.47Z" fill="#333333"/>
<path d="M42.5197 199.281C42.5197 199.281 53.3286 194.989 53.6332 187.06C53.9377 179.131 42.5197 177.452 42.5197 177.452C42.5197 177.452 31.1018 179.131 31.4064 187.06C31.7109 194.989 42.5197 199.281 42.5197 199.281Z" fill="#333333"/>
<path d="M45.1215 244.003C37.8151 165.83 24.9558 -24.8235 31.9697 -162.055C38.9837 -299.286 36.8406 -673.983 34.8924 -844.177C31.4827 -932.625 29.5342 -1189.66 49.0183 -1510.22C68.5024 -1830.78 54.8636 -1921.64 45.6086 -1927" stroke="#333333" stroke-width="2"/>
</g>
<defs>
<filter id="filter0_d_858_1874" x="0.820312" y="-1927.86" width="98.4102" height="2186.96" filterUnits="userSpaceOnUse" color-interpolation-filters="sRGB">
<feFlood flood-opacity="0" result="BackgroundImageFix"/>
<feColorMatrix in="SourceAlpha" type="matrix" values="0 0 0 0 0 0 0 0 0 0 0 0 0 0 0 0 0 0 127 0" result="hardAlpha"/>
<feOffset dx="10" dy="10"/>
<feGaussianBlur stdDeviation="2.5"/>
<feComposite in2="hardAlpha" operator="out"/>
<feColorMatrix type="matrix" values="0 0 0 0 0 0 0 0 0 0 0 0 0 0 0 0 0 0 0.25 0"/>
<feBlend mode="normal" in2="BackgroundImageFix" result="effect1_dropShadow_858_1874"/>
<feBlend mode="normal" in="SourceGraphic" in2="effect1_dropShadow_858_1874" result="shape"/>
</filter>
</defs>
</svg>
