<svg width="22" height="21" viewBox="0 0 22 21" fill="none" xmlns="http://www.w3.org/2000/svg">
<rect x="1.5" y="0.994141" width="20" height="20" rx="10" fill="#E7822F"/>
<rect x="0.5" y="-0.00585938" width="20" height="20" rx="10" fill="#FBC43C"/>
<path d="M7.16317 9.60645L10.445 4.79316C10.5465 4.64426 10.7672 4.64776 10.864 4.7998L13.927 9.61308C14.0333 9.78013 13.9133 9.99872 13.7153 9.99872H7.37049C7.1689 9.99872 7.04961 9.77301 7.16317 9.60645Z" fill="#E7822F"/>
<path d="M13.9052 9.88965L10.6234 14.7029C10.5219 14.8518 10.3012 14.8483 10.2044 14.6963L7.1414 9.88301C7.0351 9.71597 7.15509 9.49738 7.35309 9.49738H13.6979C13.8995 9.49738 14.0188 9.72309 13.9052 9.88965Z" fill="#E7822F"/>
<path d="M10.6851 4.60718C10.7529 4.62145 10.7963 4.68791 10.7821 4.75567L9.78778 9.47903C9.78471 9.49362 9.78435 9.50863 9.78656 9.52338L10.5325 14.4972C10.5427 14.5657 10.4956 14.6295 10.4271 14.6398C10.3586 14.6501 10.2948 14.6029 10.2845 14.5344L9.53833 9.56063C9.5317 9.51632 9.53302 9.47117 9.54225 9.42732L10.5366 4.70422C10.5509 4.63645 10.6173 4.59298 10.6851 4.60718Z" fill="#FBC43C"/>
<path d="M13.4201 9.37158C13.4894 9.37158 13.5456 9.42775 13.5456 9.49704C13.5456 9.56633 13.4894 9.6225 13.4201 9.6225H9.56372C9.55282 9.62251 9.54191 9.62386 9.53138 9.62667L7.68134 10.1202C7.61439 10.138 7.54555 10.0982 7.5277 10.0312C7.50985 9.96427 7.5497 9.89544 7.61665 9.87759L9.46669 9.38432C9.49831 9.37589 9.531 9.37159 9.56372 9.37158H13.4201Z" fill="#FBC43C"/>
<path d="M16.8457 2.95365C16.4264 2.36418 15.8992 2.09365 15.5823 2.00197C15.4939 1.9764 15.4027 2.01553 15.3478 2.08941L12.2763 6.22419C12.2151 6.30657 12.2102 6.41792 12.264 6.50532L12.9879 7.68166C13.08 7.83129 13.2934 7.8424 13.4005 7.70314L16.8361 3.23681C16.9 3.15374 16.9064 3.03906 16.8457 2.95365Z" fill="white" fill-opacity="0.39"/>
<path d="M8.55328 12.5981L7.82516 11.4151C7.73709 11.272 7.53603 11.2542 7.4242 11.3796L3.56052 15.7117C3.52664 15.7497 3.5042 15.7972 3.50145 15.848C3.46645 16.4954 4.072 16.6338 4.57603 16.9103C4.68619 16.9707 4.82632 16.9554 4.91098 16.8625L8.52501 12.8987C8.60039 12.816 8.61192 12.6934 8.55328 12.5981Z" fill="white" fill-opacity="0.39"/>
<path d="M17.7182 3.82865C17.4628 3.41094 17.4936 3.41872 17.4498 3.45208C17.3776 3.50709 17.2746 3.52029 17.2194 3.59234L13.6644 8.23634C13.6031 8.31649 13.5957 8.42561 13.6458 8.51327L13.7351 8.66979C13.8238 8.82509 14.0418 8.84044 14.1514 8.6991L17.7034 4.11626C17.7678 4.03316 17.7731 3.91834 17.7182 3.82865Z" fill="white" fill-opacity="0.39"/>
<path d="M9.31462 13.6093L9.21192 13.4344C9.12552 13.2872 8.92062 13.2674 8.80758 13.3952L5.32763 17.33C5.28706 17.3759 5.26186 17.4357 5.27325 17.4958C5.3215 17.7506 5.56428 17.8648 5.77622 17.8947C5.84918 17.9051 5.91943 17.8707 5.96711 17.8145L9.28957 13.8987C9.35858 13.8174 9.36863 13.7013 9.31462 13.6093Z" fill="white" fill-opacity="0.39"/>
</svg>
